<?xml version="1.0" encoding="utf-8"?>
<!-- Generator: Adobe Illustrator 17.0.0, SVG Export Plug-In . SVG Version: 6.00 Build 0)  -->
<!DOCTYPE svg PUBLIC "-//W3C//DTD SVG 1.1//EN" "http://www.w3.org/Graphics/SVG/1.1/DTD/svg11.dtd">
<svg version="1.1" id="Layer_1" xmlns="http://www.w3.org/2000/svg" xmlns:xlink="http://www.w3.org/1999/xlink" x="0px" y="0px"
	 width="366.5px" height="89px" viewBox="0 0 366.5 89" enable-background="new 0 0 366.5 89" xml:space="preserve">
<g>
	<g>
		<path fill="#EB0045" d="M21.511,75.723V30.774h14.425v44.948H21.511z"/>
		<circle fill="#EB0045" cx="28.723" cy="20.555" r="7.955"/>
	</g>
	<g>
		<path fill="#EB0045" d="M89.213,52.07c0,13.729-9.586,23.56-22.26,23.56c-5.687,0-9.749-2.193-12.673-5.199v5.253H40.469V12.506
			h14.298v20.635c2.843-2.681,6.824-4.631,12.105-4.631C79.627,28.51,89.213,38.421,89.213,52.07z M74.59,51.988
			c0-5.687-4.225-10.399-10.237-10.399c-5.93,0-10.155,4.712-10.155,10.399c0,5.849,4.225,10.48,10.155,10.48
			C70.366,62.468,74.59,57.838,74.59,51.988z"/>
	</g>
	<g>
		<path fill="#EB0045" d="M138.812,56.854H106.55c1.474,4.248,5.077,7.107,11.054,7.107c4.749,0,10.153-1.797,13.675-4.166
			l5.65,9.72c-4.585,3.267-11.464,6.208-19.979,6.208c-16.868,0-24.975-11.191-24.975-23.525c0-13.478,9.662-23.688,24.156-23.688
			c13.019,0,23.173,8.25,23.173,22.544C139.303,52.851,139.14,54.812,138.812,56.854z M106.387,46.97h19.161
			c-1.228-4.248-4.586-6.943-9.417-6.943C111.463,40.027,107.86,42.478,106.387,46.97z"/>
	</g>
	<g>
		<path fill="#EB0045" d="M167.804,75.723l-7.184-13.854l-7.782,13.854h-17.189l14.88-23.775L137.53,28.516h17.19l6.071,12.828
			l7.184-12.828h16.677l-13.854,23.518l14.453,23.689H167.804z"/>
	</g>
	<circle fill="#EB0045" cx="193.761" cy="67.969" r="7.754"/>
	<g>
		<path fill="#97989A" d="M216.533,53.061c0-13.809,9.792-23.518,23.351-23.518c8.788,0,16.572,4.436,20.003,11.549l-4.1,2.344
			c-3.014-5.607-8.956-9.29-15.903-9.29c-10.546,0-18.33,7.784-18.33,18.916c0,10.963,7.533,18.747,17.828,18.747
			c6.946,0,13.307-3.934,16.153-9.29l4.101,2.511c-3.598,6.948-11.549,11.384-20.254,11.384
			C226.074,76.413,216.533,66.704,216.533,53.061z"/>
		<path fill="#97989A" d="M307.547,30.631v44.777h-4.854v-8.705c-3.767,6.109-10.044,9.792-17.661,9.792
			c-12.805,0-22.262-10.378-22.262-23.686c0-13.307,9.457-23.266,22.262-23.266c7.617,0,13.894,3.682,17.661,9.709v-8.621H307.547z
			 M303.111,52.81c0-10.211-7.282-18.664-17.828-18.664c-10.463,0-17.493,8.369-17.493,18.832c0,10.461,7.03,18.916,17.493,18.916
			C295.83,71.893,303.111,63.272,303.111,52.81z"/>
		<path fill="#97989A" d="M345.732,72.562c-3.265,2.594-7.617,3.85-11.886,3.85c-9.207,0-13.474-6.194-13.474-15.651V35.067h-7.952
			v-4.436h8.036V14.812h4.938v15.819h18.413v4.436h-18.413v25.862c0,6.946,2.846,10.88,8.871,10.88c3.431,0,6.696-1.171,9.374-3.096
			L345.732,72.562z"/>
	</g>
</g>
</svg>
